<svg width="59" height="61" viewBox="0 0 59 61" fill="none" xmlns="http://www.w3.org/2000/svg">
<path d="M53.3683 21.517C48.0315 21.517 45.8496 17.3809 48.5033 12.3077C50.0365 9.36724 49.1224 5.61893 46.4393 3.93865L41.3383 0.739651C39.009 -0.779064 36.0015 0.125702 34.6157 2.67844L34.2914 3.29238C31.6377 8.36554 27.2739 8.36554 24.5907 3.29238L24.2664 2.67844C22.9395 0.125702 19.932 -0.779064 17.6027 0.739651L12.5017 3.93865C9.81859 5.61893 8.90455 9.39956 10.4378 12.34C13.1209 17.3809 10.939 21.517 5.6022 21.517C2.53573 21.517 0 24.2636 0 27.6564V33.3436C0 36.7041 2.50625 39.483 5.6022 39.483C10.939 39.483 13.1209 43.6191 10.4378 48.6923C8.90455 51.6328 9.81859 55.3811 12.5017 57.0614L17.6027 60.2604C19.932 61.7791 22.9395 60.8743 24.3253 58.3216L24.6497 57.7076C27.3033 52.6345 31.6672 52.6345 34.3503 57.7076L34.6747 58.3216C36.0605 60.8743 39.068 61.7791 41.3973 60.2604L46.4983 57.0614C49.1814 55.3811 50.0954 51.6004 48.5622 48.6923C45.8791 43.6191 48.061 39.483 53.3978 39.483C56.4643 39.483 59 36.7364 59 33.3436V27.6564C58.9705 24.2959 56.4643 21.517 53.3683 21.517ZM29.4853 41.0018C24.2074 41.0018 19.9025 36.284 19.9025 30.5C19.9025 24.716 24.2074 19.9982 29.4853 19.9982C34.7631 19.9982 39.068 24.716 39.068 30.5C39.068 36.284 34.7631 41.0018 29.4853 41.0018Z" fill="#8479FF"/>
</svg>
